<?xml version="1.0" standalone="no"?>
<!DOCTYPE svg PUBLIC "-//W3C//DTD SVG 20010904//EN"
 "http://www.w3.org/TR/2001/REC-SVG-20010904/DTD/svg10.dtd">
<svg version="1.0" xmlns="../../../external.html?link=http://www.w3.org/2000/svg"
 width="101.000000pt" height="101.000000pt" viewBox="0 0 101.000000 101.000000"
 preserveAspectRatio="xMidYMid meet">
<metadata>
Created by potrace 1.11, written by Peter Selinger 2001-2013
</metadata>
<g transform="translate(0.000000,101.000000) scale(0.100000,-0.100000)"
fill="#000000" stroke="none">
<path d="M470 992 c0 -26 -106 -47 -119 -24 -12 21 -50 7 -44 -17 7 -26 -83
-77 -104 -59 -20 16 -52 -15 -35 -34 16 -20 -53 -101 -78 -93 -26 8 -47 -30
-24 -43 15 -8 14 -13 -2 -60 -13 -35 -25 -52 -38 -54 -26 -4 -33 -48 -7 -48
16 0 18 -8 18 -60 -1 -52 -3 -60 -20 -60 -13 0 -17 -5 -13 -16 3 -9 6 -20 6
-26 0 -5 8 -8 18 -6 25 5 65 -92 44 -109 -8 -7 -11 -20 -7 -32 7 -23 13 -25
34 -12 11 7 23 -2 48 -34 34 -46 41 -65 21 -65 -6 0 -3 -9 7 -20 16 -18 20
-19 33 -6 13 13 21 11 63 -12 40 -23 47 -31 42 -50 -4 -18 -1 -22 20 -22 14 0
27 7 31 15 4 12 11 13 33 4 15 -6 29 -10 31 -10 1 1 13 1 27 1 18 0 25 -5 25
-20 0 -15 7 -20 26 -20 19 0 25 4 21 15 -7 18 0 22 44 30 19 3 42 8 52 11 13
4 20 0 24 -14 7 -28 43 -17 43 13 0 32 84 83 106 65 20 -18 47 5 35 29 -13 24
54 104 79 96 25 -8 44 25 23 40 -13 10 -13 17 3 63 12 34 24 52 35 52 18 0 33
26 23 41 -3 5 -11 9 -18 9 -21 0 -16 109 6 121 21 12 12 49 -12 49 -12 0 -22
12 -31 38 -6 20 -16 43 -21 49 -7 9 -5 15 6 19 18 7 20 22 7 43 -8 12 -13 12
-24 3 -12 -10 -21 -4 -51 32 -37 46 -45 66 -24 66 6 0 3 9 -7 20 -16 17 -20
18 -34 6 -14 -11 -22 -10 -61 14 -26 15 -45 34 -45 44 0 10 -8 22 -17 27 -13
7 -20 5 -28 -10 -6 -13 -16 -18 -27 -14 -14 5 -32 8 -80 12 -7 1 -13 10 -13
21 0 15 -7 20 -25 20 -18 0 -25 -5 -25 -18z"/>
</g>
</svg>
